<?xml version="1.0" standalone="no"?><!DOCTYPE svg PUBLIC "-//W3C//DTD SVG 1.1//EN" "http://www.w3.org/Graphics/SVG/1.1/DTD/svg11.dtd"><svg class="icon" width="200px" height="200.00px" viewBox="0 0 1024 1024" version="1.1" xmlns="http://www.w3.org/2000/svg"><path fill="#ffffff" d="M512 504.57A220 220 0 0 1 356.44 129a220 220 0 1 1 311.12 311.13A218.57 218.57 0 0 1 512 504.57z m0-380c-88.22 0-160 71.77-160 160s71.78 160 160 160 160-71.78 160-160-71.78-160-160-160zM896.17 731.44h-256a30 30 0 1 1 0-60h256a30 30 0 1 1 0 60zM896.17 844.83h-256a30 30 0 0 1 0-60h256a30 30 0 0 1 0 60zM896.17 958.22h-256a30 30 0 0 1 0-60h256a30 30 0 0 1 0 60zM697.36 581.92c-23.74-16-61.5-26-115.43-30.49a691.22 691.22 0 0 0-69.93-2.21c-0.68 0-1.36 0.07-2 0.14h-1.36a392.86 392.86 0 0 0-148.25 29 418 418 0 0 0-125.28 79.6c-74.86 68.51-126.42 163.67-145.18 268a30 30 0 0 0 29.52 35.31H512a30 30 0 0 0 0-60H156.77c45.47-171.22 188.53-291.95 351.81-291.95a29.24 29.24 0 0 0 3-0.15c0.71 0 1.44 0.05 2.16 0 43.33-1.17 122.41 3.83 150.04 22.47a30 30 0 1 0 33.58-49.72z" /></svg>